<?xml version="1.0" standalone="no"?><!DOCTYPE svg PUBLIC "-//W3C//DTD SVG 1.1//EN" "http://www.w3.org/Graphics/SVG/1.1/DTD/svg11.dtd"><svg t="1711632466838" class="icon" viewBox="0 0 1098 1024" version="1.1" xmlns="http://www.w3.org/2000/svg" p-id="28345" xmlns:xlink="http://www.w3.org/1999/xlink" width="137.25" height="128"><path d="M922.90925442 450.35912561c-22.62929775-19.38269618-54.17463549-36.29409808-93.76379182-50.58883653-13.37406038-4.84567366-27.52342807-9.25523738-42.35119132-13.32560294 3.87653892-14.82776247 7.1231405-29.31632755 9.6913481-43.32032605a391.28817518 391.28817518 0 0 0 6.34783317-58.53574179 103.35822659 103.35822659 0 0 1-44.14409001 9.69134809 108.10698692 108.10698692 0 0 1-16.91140269-1.35678877 356.83543325 356.83543325 0 0 1-4.84567366 39.34687302c-2.37438018 13.03486298-5.42715511 26.60274999-9.06140996 40.50983439-28.63793355-5.42715511-58.92339583-9.69134809-90.27490695-12.30801155-18.07436406-25.77898601-36.77866544-49.91044253-55.77370756-72.00671547q15.3607865-15.21541652 30.57620301-28.10490953a315.25955003 315.25955003 0 0 1 48.45673965-34.35582862A105.19958273 105.19958273 0 0 1 659.20767565 160.10325349c-26.65120665 10.32128543-55.43451019 28.4925628-85.76842991 54.07772218-10.85430945 9.20678072-21.805533 19.38269618-32.70829987 29.99472156a591.4145111 591.4145111 0 0 0-32.70829912-29.99472156C475.60508759 187.09365754 445.07734124 168.24398616 416.92397505 158.31035401c-42.59347461-15.11850321-71.71597553-6.63857314-88.62737743 3.14968826s-38.76539234 30.77002965-47.00303756 75.15640376c-5.42715511 29.07404425-4.36110629 65.0774016 3.05277495 106.60482815 2.51975016 14.00399771 5.76635172 28.4925628 9.69134809 43.32032527-14.82776247 4.07036634-29.07404425 8.52838594-42.35119131 13.32560372-39.44378634 14.19782512-70.9891241 31.20614036-93.61842107 50.49192244C123.71224211 479.62699727 116.4921875 508.99178148 116.4921875 528.6652176s7.2200546 48.98976445 41.57588322 78.30609201c22.62929775 19.38269618 54.17463549 36.29409808 93.76379182 50.54037987 13.37406038 4.84567366 27.52342807 9.30369404 42.35119053 13.37406038-3.87653892 14.82776247-7.1231405 29.07404425-9.69134808 43.32032526-7.41388124 41.43051247-8.47992929 77.24004319-3.05277495 106.60482817 8.14073267 44.38637409 30.09163564 65.36814233 47.00303833 75.15640374a88.04589674 88.04589674 0 0 0 44.53174407 11.38733349 131.17239538 131.17239538 0 0 0 43.95026261-8.38301598c28.00799543-9.69134809 58.53574179-28.73484686 90.71101766-55.87062088 10.85430945-9.20678072 21.805533-19.38269618 32.70829911-29.99472233 11.04813686 10.85430945 21.95090298 20.7879416 32.85366986 30.23700563 32.17527509 27.13577403 62.70302145 45.93698951 90.66256098 55.87062166a131.41467867 131.41467867 0 0 0 44.09563337 8.28610264 88.19126673 88.19126673 0 0 0 44.53174407-11.38733424c16.91140192-9.69134809 38.76539234-30.77002965 47.00303756-75.15640375 5.42715511-29.07404425 4.36110629-65.0774016-3.05277494-106.60482817-2.51975016-14.00399771-5.76635172-28.4925628-9.69134809-43.32032527 14.82776247-4.07036634 29.07404425-8.52838594 42.35119131-13.37406037 39.58915633-14.24628178 71.13449407-31.25459702 93.76379182-50.54037987 34.35582862-29.07404425 41.57588322-58.77802585 41.57588244-78.30609123s-7.17159716-49.1835911-41.52742578-78.45146275z m-213.20965634-19.38269541q-4.84567366 13.95554107-10.61202615 27.71725471c-3.05277494-5.42715511-6.10554911-10.85430945-9.25523661-16.2330079s-6.25091909-10.80585279-9.69134809-16.13609383q14.73084915 2.13209687 29.36478421 4.74876035z m-19.86726276 183.69950138c3.14968826-5.37869845 6.20246243-10.80585279 9.25523661-16.28146534 3.68271229 9.20678072 7.2200546 18.41356145 10.61202615 27.71725548q-14.53702174 2.61666424-29.07404348 4.84567442 4.36110629-8.04381857 9.01295332-16.18455124z m-149.14984612-281.04909216c6.39628984 7.55925122 12.59875228 15.26387317 18.7043014 23.01695179h-37.40860278c5.91172248-7.84999193 12.11418491-15.5546139 18.51047475-23.11386511z m-199.64176855-86.01071319c2.18055354-11.96881493 7.07468385-27.52342807 17.73516667-33.67743462a27.91108211 27.91108211 0 0 1 14.24628179-3.3435149 75.05949042 75.05949042 0 0 1 23.79225912 4.84567365c20.83639827 7.41388124 45.69470543 23.0169518 71.86134549 45.11322475q15.26387317 12.88949302 30.57620302 28.10490953c-18.99504213 22.09627372-37.69934351 46.22773024-55.77370757 72.00671548C412.0783014 363.62156175 381.84129578 367.49810068 353.20336222 372.92525578c-3.68271229-13.9070844-6.6870298-27.47497141-9.06140996-40.50983516-6.0086358-33.77434793-7.1231405-63.09067549-3.1012316-84.79929439z m41.04285842 350.87525409c3.05277494 5.42715511 6.10554911 10.85430945 9.25523738 16.28146458s6.25091909 10.80585279 9.69134809 16.13609459q-14.53702174-2.08363943-29.31632755-4.84567443c3.14968826-9.15832406 6.6870298-18.36510477 10.36974208-27.57188474z m-10.61202615-167.4180368q14.53702174-2.61666424 29.31632832-4.84567443-4.84567366 7.99536191-9.69134809 16.13609459c-3.14968826 5.37869845-6.20246243 10.80585279-9.25523737 16.23300792q-5.28178436-13.51943035-10.36974286-27.52342808z m-59.50487652 181.90660189c-13.85862773-3.77962561-27.13577403-7.94690527-39.58915633-12.40492564-32.27218918-11.67807421-58.14808774-25.39133197-75.01103376-39.68606964-9.25523738-7.8984486-20.30337424-19.9157202-20.30337347-32.22373253s11.04813686-24.22836983 20.30337347-32.22373173c16.81448858-14.53702174 42.73884458-28.05645209 75.01103377-39.68607043 12.4533823-4.50647704 25.73052859-8.62530004 39.58915632-12.40492486 9.69134809 27.47497141 21.22405232 55.77370757 34.50119936 84.31472702-13.27714705 28.54102023-24.85830794 56.79129895-34.50119936 84.31472781z m156.70909732 183.84487135c-26.16663929 22.09627372-51.02494723 37.69934351-71.86134549 45.11322476-11.48424757 4.07036634-27.37805809 7.60770788-38.03854091 1.45370209s-15.5546139-21.70861968-17.73516666-33.67743384c-4.02190967-21.70861968-2.90740419-51.07340389 3.1012316-84.79929517 2.37438018-13.08331965 5.42715511-26.60274999 9.06140996-40.5098344 28.63793355 5.37869845 58.92339583 9.69134809 90.27490695 12.30801156A963.07770682 963.07770682 0 0 0 499.30043339 768.71990802q-15.3607865 15.21541652-30.576203 28.10490874z m71.81288885-73.02430686c-6.39628984-7.55925122-12.59875228-15.26387317-18.70430217-23.06540847h37.40860357c-6.10554911 7.80153529-12.30801232 15.50615648-18.7043014 23.06540847z m0-83.4425064c-21.46633561 0-42.64193127-0.678394-63.38141622-1.8898128q-17.15368597-26.02126931-33.33823723-53.98080809c-10.75739614-18.60738808-20.7879416-37.26323282-30.09163564-55.822165 9.69134809-18.8981288 19.38269618-37.55397353 30.09163564-55.82216423S465.38071548 436.30667123 477.10724635 418.86224529a1063.29109088 1063.29109088 0 0 1 126.76283165 0q17.49288337 26.45738002 33.33823723 53.98080809c10.5635695 18.26819069 20.5941142 36.9240362 30.09163565 55.82216423q-14.24628178 28.34719283-30.09163565 55.822165t-33.33823722 53.98080809c-21.07868156 1.35678878-42.25427722 1.8898128-63.38141544 1.8898128z m199.44794191 169.59858956c-2.18055354 11.96881493-7.07468385 27.52342807-17.73516744 33.67743462s-26.60274999 2.61666424-38.03854091-1.4537021c-20.83639827-7.41388124-45.69470543-23.0169518-71.86134549-45.11322475q-15.26387317-12.88949302-30.57620225-28.10490953c18.99504213-22.09627372 37.69934351-46.27618689 55.77370758-72.05517213 31.3515111-2.76203422 61.6369734-6.88085722 90.27490616-12.25955566 3.63425562 13.9070844 6.6870298 27.42651475 9.06141075 40.50983516 6.0086358 33.48360721 7.1231405 62.84839142 3.1012316 84.5570111z m143.67423358-248.82535963c-16.81448858 14.53702174-42.73884458 28.00799543-75.01103377 39.68607041-12.4533823 4.45802038-25.73052859 8.62530004-39.58915632 12.40492487-9.69134809-27.52342807-21.22405232-55.77370757-34.50119861-84.31472703 13.27714705-28.54102023 24.85830794-56.83975562 34.50119861-84.3147278 13.85862773 3.77962561 27.13577403 7.8984486 39.58915631 12.40492564 32.27218918 11.62961754 58.14808774 25.34287531 75.01103377 39.68606964 9.25523738 7.8984486 20.30337424 19.9157202 20.30337424 32.22373252s-11.04813686 24.08299985-20.30337423 31.98144845z" fill="#3366FF" p-id="28346"></path><path d="M684.84129091 190.29180247A73.79961496 73.79961496 0 1 0 758.64090588 116.4921875a73.79961496 73.79961496 0 0 0-73.79961496 73.79961496z" fill="#AEC9FF" p-id="28347"></path></svg>